<?xml version="1.0" encoding="UTF-8" standalone="no"?>
<!-- Created with Inkscape (http://www.inkscape.org/) -->

<svg
   width="32.512001mm"
   height="30.612289mm"
   viewBox="0 0 32.512 30.61229"
   version="1.1"
   id="svg5"
   xml:space="preserve"
   inkscape:version="1.2.1 (9c6d41e410, 2022-07-14)"
   sodipodi:docname="repeat-candlesticks.svg"
   xmlns:inkscape="http://www.inkscape.org/namespaces/inkscape"
   xmlns:sodipodi="http://sodipodi.sourceforge.net/DTD/sodipodi-0.dtd"
   xmlns="http://www.w3.org/2000/svg"
   xmlns:svg="http://www.w3.org/2000/svg"><sodipodi:namedview
     id="namedview7"
     pagecolor="#ffffff"
     bordercolor="#000000"
     borderopacity="0.25"
     inkscape:showpageshadow="2"
     inkscape:pageopacity="0.0"
     inkscape:pagecheckerboard="0"
     inkscape:deskcolor="#d1d1d1"
     inkscape:document-units="mm"
     showgrid="false"
     inkscape:zoom="3.9073504"
     inkscape:cx="-12.28454"
     inkscape:cy="38.901042"
     inkscape:window-width="1920"
     inkscape:window-height="1011"
     inkscape:window-x="0"
     inkscape:window-y="32"
     inkscape:window-maximized="1"
     inkscape:current-layer="layer1" /><defs
     id="defs2" /><g
     inkscape:label="Calque 1"
     inkscape:groupmode="layer"
     id="layer1"
     transform="translate(-112.06347,-147.46081)"><g
       id="g6014"
       transform="translate(1.7483233,2.4479375)"
       style="fill:#33447e;fill-opacity:1"><path
         class="st2"
         d="m 131.56913,158.89027 c 0,0.34131 -0.27781,0.61912 -0.61913,0.61912 -0.34131,0 -0.61912,-0.27781 -0.61912,-0.61912 v -3.82853 c 0,-0.34131 0.27781,-0.61912 0.61912,-0.61912 0.34132,0 0.61913,0.27781 0.61913,0.61912 z"
         id="path1073"
         style="fill:#33447e;fill-opacity:1;stroke-width:0.264583" /><path
         class="st2"
         d="m 131.56913,175.00604 c 0,0.34131 -0.27781,0.61912 -0.61913,0.61912 -0.34131,0 -0.61912,-0.27781 -0.61912,-0.61912 v -3.82852 c 0,-0.34132 0.27781,-0.61913 0.61912,-0.61913 0.34132,0 0.61913,0.27781 0.61913,0.61913 z"
         id="path1075"
         style="fill:#33447e;fill-opacity:1;stroke-width:0.264583" /><path
         class="st2"
         d="m 128.83598,158.03831 h 4.17248 c 0.29898,0 0.5715,0.12435 0.77259,0.32543 0.20902,0.20903 0.33866,0.50007 0.33866,0.82021 v 11.44588 c 0,0.32014 -0.12964,0.61119 -0.33866,0.82021 -0.20109,0.20108 -0.47361,0.32543 -0.77259,0.32543 h -4.17248 c -0.29898,0 -0.5715,-0.12435 -0.77258,-0.32543 -0.20902,-0.20902 -0.33867,-0.50007 -0.33867,-0.82021 v -11.44588 c 0,-0.32014 0.12965,-0.61118 0.33867,-0.82021 0.20373,-0.20108 0.47625,-0.32543 0.77258,-0.32543 z m 3.63802,1.7145 h -3.10091 v 10.30552 h 3.10091 z"
         id="path1077"
         style="fill:#33447e;fill-opacity:1;stroke-width:0.264583" /><path
         class="st0"
         d="m 128.83598,158.89556 h 4.17248 c 0.15875,0 0.2884,0.12964 0.2884,0.28839 v 11.44588 c 0,0.15875 -0.12965,0.28839 -0.2884,0.28839 h -4.17248 c -0.15875,0 -0.28839,-0.12964 -0.28839,-0.28839 v -11.44588 c 0.003,-0.15875 0.13229,-0.28839 0.28839,-0.28839 z"
         id="path1079"
         style="fill:#33447e;fill-opacity:1;stroke:none;stroke-width:0.264583;stroke-opacity:1" /><path
         class="st2"
         d="m 140.21836,156.48256 c 0,0.34131 -0.27781,0.61912 -0.61913,0.61912 -0.34131,0 -0.61912,-0.27781 -0.61912,-0.61912 v -5.15938 c 0,-0.34131 0.27781,-0.61912 0.61912,-0.61912 0.34132,0 0.61913,0.27781 0.61913,0.61912 z"
         id="path1081"
         style="fill:#33447e;fill-opacity:1;stroke-width:0.264583" /><path
         class="st2"
         d="m 140.21836,172.27289 c 0,0.34131 -0.27781,0.61913 -0.61913,0.61913 -0.34131,0 -0.61912,-0.27782 -0.61912,-0.61913 v -5.15673 c 0,-0.34131 0.27781,-0.61912 0.61912,-0.61912 0.34132,0 0.61913,0.27781 0.61913,0.61912 z"
         id="path1083"
         style="fill:#33447e;fill-opacity:1;stroke-width:0.264583" /><path
         class="st2"
         d="m 137.54342,155.62266 h 4.17248 c 0.29898,0 0.5715,0.12436 0.77258,0.32544 0.20902,0.20902 0.33867,0.50006 0.33867,0.82021 v 9.62554 c 0,0.32014 -0.12965,0.61119 -0.33867,0.82021 -0.20108,0.20108 -0.4736,0.32543 -0.77258,0.32543 h -4.17248 c -0.29898,0 -0.5715,-0.12435 -0.77258,-0.32543 -0.20902,-0.20902 -0.33867,-0.49742 -0.33867,-0.82021 v -9.62554 c 0,-0.32015 0.12965,-0.61119 0.33867,-0.82021 0.20108,-0.19844 0.4736,-0.32544 0.77258,-0.32544 z m 3.63802,1.71715 h -3.10092 v 8.48783 h 3.10092 z"
         id="path1085"
         style="fill:#33447e;fill-opacity:1;stroke-width:0.264583" /><path
         class="st1"
         d="m 137.54342,156.48256 h 4.17248 c 0.15875,0 0.2884,0.12964 0.2884,0.28839 v 9.62554 c 0,0.15875 -0.12965,0.2884 -0.2884,0.2884 h -4.17248 c -0.15875,0 -0.2884,-0.12965 -0.2884,-0.2884 v -9.62818 c 0,-0.15875 0.12965,-0.28575 0.2884,-0.28575 z"
         id="path1087"
         style="fill:#33447e;fill-opacity:1;stroke:none;stroke-width:0.264583;stroke-opacity:1" /><path
         class="st2"
         d="m 122.83788,150.22252 c 0,0.34131 -0.27781,0.61912 -0.61913,0.61912 -0.34131,0 -0.61912,-0.27781 -0.61912,-0.61912 v -4.59053 c 0,-0.34131 0.27781,-0.61912 0.61912,-0.61912 0.34132,0 0.61913,0.27781 0.61913,0.61912 z"
         id="path1089"
         style="fill:#33447e;fill-opacity:1;stroke-width:0.264583" /><path
         class="st2"
         d="m 122.83788,168.93385 c 0,0.34131 -0.27781,0.61912 -0.61913,0.61912 -0.34131,0 -0.61912,-0.27781 -0.61912,-0.61912 v -4.58788 c 0,-0.34131 0.27781,-0.61912 0.61912,-0.61912 0.34132,0 0.61913,0.27781 0.61913,0.61912 z"
         id="path1091"
         style="fill:#33447e;fill-opacity:1;stroke-width:0.264583" /><path
         class="st2"
         d="m 120.13119,149.36527 h 4.17248 c 0.29898,0 0.5715,0.12435 0.77258,0.32543 0.20902,0.20902 0.33867,0.50007 0.33867,0.82021 v 13.27415 c 0,0.32014 -0.12965,0.61118 -0.33867,0.82021 -0.20108,0.20108 -0.4736,0.32543 -0.77258,0.32543 h -4.17248 c -0.29633,0 -0.5715,-0.12435 -0.77258,-0.32543 -0.20902,-0.20903 -0.33867,-0.49742 -0.33867,-0.82021 v -13.27415 c 0,-0.32014 0.12965,-0.61119 0.33867,-0.82021 0.20108,-0.20108 0.47625,-0.32543 0.77258,-0.32543 z m 3.63802,1.7145 h -3.10091 v 12.13379 h 3.10091 z"
         id="path1093"
         style="fill:#33447e;fill-opacity:1;stroke-width:0.264583" /><path
         class="st1"
         d="m 120.13119,150.22252 h 4.17248 c 0.15875,0 0.2884,0.12964 0.2884,0.28839 v 13.27415 c 0,0.15875 -0.12965,0.28839 -0.2884,0.28839 h -4.17248 c -0.15875,0 -0.28839,-0.12964 -0.28839,-0.28839 v -13.27415 c 0,-0.15875 0.12964,-0.28839 0.28839,-0.28839 z"
         id="path1095"
         style="fill:#33447e;fill-opacity:1;stroke:none;stroke-width:0.264583;stroke-opacity:1" /><path
         class="st2"
         d="m 114.13309,170.73037 c 0,0.34131 -0.27782,0.61912 -0.61913,0.61912 -0.34131,0 -0.61912,-0.27781 -0.61912,-0.61912 v -5.37104 c 0,-0.34131 0.27781,-0.61913 0.61912,-0.61913 0.34131,0 0.61913,0.27782 0.61913,0.61913 z"
         id="path1097"
         style="fill:#33447e;fill-opacity:1;stroke-width:0.264583" /><path
         class="st2"
         d="m 114.13309,152.47941 c 0,0.34131 -0.27782,0.61913 -0.61913,0.61913 -0.34131,0 -0.61912,-0.27782 -0.61912,-0.61913 v -5.36839 c 0,-0.34132 0.27781,-0.61913 0.61912,-0.61913 0.34131,0 0.61913,0.27781 0.61913,0.61913 z"
         id="path1099"
         style="fill:#33447e;fill-opacity:1;stroke-width:0.264583" /><path
         class="st2"
         d="m 111.4264,151.77827 h 4.17248 c 0.29898,0 0.5715,0.12435 0.77258,0.32543 0.20902,0.20902 0.33867,0.50007 0.33867,0.82021 v 12.14967 c 0,0.32014 -0.12965,0.61119 -0.33867,0.82021 -0.20108,0.20108 -0.4736,0.32543 -0.77258,0.32543 h -4.17248 c -0.29898,0 -0.5715,-0.12435 -0.77258,-0.32543 -0.20902,-0.20902 -0.33867,-0.50007 -0.33867,-0.82021 v -12.14967 c 0,-0.32014 0.12965,-0.61119 0.33867,-0.82021 0.20108,-0.20108 0.4736,-0.32543 0.77258,-0.32543 z m 3.63802,1.7145 h -3.10356 v 11.00931 h 3.10091 v -11.00931 z"
         id="path1101"
         style="fill:#33447e;fill-opacity:1;stroke-width:0.264583" /><path
         class="st0"
         d="m 111.4264,152.63552 h 4.17248 c 0.15875,0 0.28839,0.12964 0.28839,0.28839 v 12.14967 c 0,0.15875 -0.12964,0.28839 -0.28839,0.28839 h -4.17248 c -0.15875,0 -0.2884,-0.12964 -0.2884,-0.28839 v -12.14967 c 0,-0.15875 0.12965,-0.28839 0.2884,-0.28839 z"
         id="path1103"
         style="fill:#33447e;fill-opacity:1;stroke:none;stroke-width:0.264583;stroke-opacity:1" /></g><g
       id="g1793"
       transform="matrix(1.1259821,0,0,1.1259821,30.205778,-19.573092)"
       style="fill:#8d9bc9;fill-opacity:1;stroke:none;stroke-width:0.6;stroke-dasharray:none;stroke-opacity:1"><path
         d="m 89.712167,154.04191 -0.172903,0.15521 -0.02217,0.88241 -0.02217,0.87794 -4.36732,0.0222 -4.36732,0.0222 -0.376928,0.11981 c -0.833594,0.2616 -1.423295,0.61635 -1.973125,1.1971 -0.58075,0.60292 -0.900112,1.17045 -1.121834,1.98187 -0.115336,0.42128 -0.115336,0.43897 -0.115336,2.06629 l -0.0043,1.64014 0.137509,0.24389 c 0.416797,0.74043 1.401122,0.84682 1.946478,0.2085 0.266066,-0.31041 0.288239,-0.46114 0.288239,-1.942 0,-0.80247 0.0177,-1.41434 0.04882,-1.55633 0.177378,-0.84234 0.873464,-1.47638 1.746928,-1.58724 0.226198,-0.0311 1.764625,-0.0444 4.256459,-0.0354 l 3.901703,0.0132 0.02217,0.86452 c 0.0177,0.64299 0.03987,0.88668 0.08421,0.95767 0.09744,0.15074 0.288239,0.23942 0.505487,0.23942 0.1906,0 0.279288,-0.0576 2.137078,-1.40986 1.068539,-0.77156 1.981872,-1.45869 2.030692,-1.52521 0.110861,-0.14626 0.115336,-0.47884 0.01322,-0.63405 -0.0354,-0.0576 -0.939981,-0.73595 -2.00852,-1.51198 -1.86674,-1.35678 -1.946478,-1.40987 -2.168201,-1.42777 -0.212568,-0.0177 -0.243691,-0.009 -0.398896,0.13751 z"
         id="path1051"
         style="fill:#8d9bc9;fill-opacity:1;stroke:none;stroke-width:0.6;stroke-dasharray:none;stroke-opacity:1" /><path
         d="m 95.547126,160.03635 c -0.274814,0.0842 -0.567528,0.3458 -0.691611,0.61634 -0.102114,0.22173 -0.106386,0.25265 -0.106386,1.5785 0,1.51199 -0.03539,1.77358 -0.270542,2.21702 -0.155206,0.29272 -0.487789,0.62957 -0.793725,0.81143 -0.443445,0.25711 -0.354756,0.25264 -4.841888,0.25264 h -4.114475 v -0.8336 c 0,-0.75385 -0.0089,-0.84254 -0.08869,-0.97537 -0.164156,-0.26607 -0.523183,-0.34581 -0.797997,-0.18185 -0.359231,0.22172 -3.830915,2.77112 -3.888481,2.85981 -0.03539,0.0531 -0.07099,0.16842 -0.08869,0.25264 -0.0533,0.33258 -0.0177,0.3635 2.061814,1.87548 1.117359,0.8159 2.004045,1.42777 2.092734,1.44995 0.124083,0.0354 0.19955,0.0266 0.359231,-0.0444 0.319158,-0.14178 0.35028,-0.24837 0.35028,-1.20605 v -0.79799 l 4.314229,-0.0134 4.309754,-0.0132 0.425544,-0.11981 c 0.811422,-0.22172 1.405598,-0.55858 2.004045,-1.13953 0.563052,-0.54536 0.922283,-1.13953 1.174925,-1.95543 0.115336,-0.37245 0.115336,-0.39015 0.133033,-2.07504 l 0.01322,-1.70258 -0.115336,-0.23942 c -0.266067,-0.54515 -0.855564,-0.79779 -1.440992,-0.61614 z"
         id="path1053"
         style="fill:#8d9bc9;fill-opacity:1;stroke:none;stroke-width:0.6;stroke-dasharray:none;stroke-opacity:1" /></g></g><style
     type="text/css"
     id="style1071"><![CDATA[
	.st0{fill-rule:evenodd;clip-rule:evenodd;fill:#4AE351;}
	.st1{fill-rule:evenodd;clip-rule:evenodd;fill:#FB4049;}
	.st2{fill:#393939;}
]]></style></svg>
