<?xml version="1.0" encoding="UTF-8" standalone="no"?>
<svg
   class="svg-icon"
   style="overflow:hidden;fill:currentColor"
   viewBox="0 0 1023.9972 939.44788"
   version="1.1"
   id="svg6"
   sodipodi:docname="production.svg"
   width="1023.9972"
   height="939.44788"
   inkscape:version="1.2.1 (9c6d41e410, 2022-07-14)"
   xmlns:inkscape="http://www.inkscape.org/namespaces/inkscape"
   xmlns:sodipodi="http://sodipodi.sourceforge.net/DTD/sodipodi-0.dtd"
   xmlns="http://www.w3.org/2000/svg"
   xmlns:svg="http://www.w3.org/2000/svg">
  <defs
     id="defs10" />
  <sodipodi:namedview
     id="namedview8"
     pagecolor="#ffffff"
     bordercolor="#000000"
     borderopacity="0.25"
     inkscape:showpageshadow="2"
     inkscape:pageopacity="0.0"
     inkscape:pagecheckerboard="0"
     inkscape:deskcolor="#d1d1d1"
     showgrid="false"
     inkscape:zoom="0.81933594"
     inkscape:cx="459.51847"
     inkscape:cy="468.67223"
     inkscape:window-width="1920"
     inkscape:window-height="1043"
     inkscape:window-x="1920"
     inkscape:window-y="0"
     inkscape:window-maximized="1"
     inkscape:current-layer="svg6" />
  <path
     d="m 612.3,643.23204 -49.6,-49.6 c -4.7,-4.7 -5.7,-11.9 -2.6,-17.9 6.1,-11.9 11.2,-24.4 15.4,-37.4 2,-6.4 7.8,-10.9 14.5,-10.9 h 70.1 c 13.8,0 24.9,-11.1 24.9,-24.9 v -77.7 c 0,-13.8 -11.1,-24.9 -24.9,-24.9 h -70.5 c -6.7,0 -12.4,-4.4 -14.5,-10.8 -4.2,-12.9 -9.3,-25.2 -15.5,-37.1 -3.1,-6 -2.2,-13.2 2.5,-18 l 49.8,-49.8 c 9.7,-9.7 9.7,-25.5 0,-35.2 l -55,-55 c -9.7,-9.7 -25.5,-9.7 -35.2,0 l -50.2,50.2 c -4.7,4.7 -11.9,5.7 -17.9,2.6 -11.8,-6 -24.1,-11 -36.8,-15 -6.4,-2 -10.9,-7.7 -10.9,-14.5 v -71 c 0,-13.8 -11.2,-24.9 -24.9,-24.9 h -77.7 c -13.8,0 -24.9,11.2 -24.9,24.9 v 71.4 c 0,6.7 -4.4,12.4 -10.8,14.5 -12.6,4.1 -24.7,9.1 -36.3,15.1 -6,3.1 -13.2,2.2 -17.9,-2.6 l -50.4,-50.4 c -9.7,-9.7 -25.5,-9.7 -35.2,0 l -55,54.9 c -9.7,9.7 -9.8,25.5 0,35.2 l 50.4,50.5 c 4.7,4.8 5.7,12 2.6,17.9 -6,11.7 -11,23.9 -15.1,36.5 -2.1,6.4 -7.8,10.9 -14.5,10.8 -16.8,0 -48.8,0 -71.3,-0.1 -13.8,0 -24.9,11.1 -24.9,24.9 v 77.8 c 0,13.8 11.1,24.9 24.9,24.9 l 71.1,0.1 c 6.7,0 12.5,4.5 14.5,10.9 4.1,12.8 9.1,25.1 15.1,36.8 3.1,6 2.2,13.1 -2.6,17.9 l -50.1,50.1 c -9.7,9.7 -9.7,25.5 0,35.2 l 54.9,55 c 9.7,9.7 25.5,9.7 35.2,0 l 49.9,-49.9 c 4.8,-4.8 12,-5.7 18,-2.6 11.8,6.1 24.2,11.3 37.1,15.4 6.4,2.1 10.8,7.8 10.8,14.5 v 70.4 c 0,13.8 11.1,24.9 24.9,24.9 h 77.7 c 13.8,0 24.9,-11.1 24.9,-24.9 v -70.2 c 0,-6.7 4.5,-12.5 10.9,-14.5 13,-4.1 25.4,-9.3 37.4,-15.4 6,-3.1 13.2,-2.2 17.9,2.6 l 49.5,49.5 c 9.7,9.7 25.5,9.7 35.2,0 l 55,-55 c 9.9,-9.7 9.9,-25.5 0.1,-35.2 z m -151.1,-155.4 c -9,47.4 -47.2,85.6 -94.6,94.6 -84.8,16.1 -157.8,-56.9 -141.8,-141.8 9,-47.4 47.2,-85.6 94.6,-94.6 84.9,-16 157.9,57 141.8,141.8 z"
     fill="#4D4D4D"
     id="path2"
     style="fill:#33447e;fill-opacity:1" />
  <path
     d="m 609.6,208.83204 57.7,19.2 c 11.9,4 15,19.3 5.7,27.6 l -45.5,40.4 c -6.7,6 -7.3,16.2 -1.4,23 l 57.3,64.6 c 6,6.7 16.2,7.3 23,1.4 l 45.5,-40.4 c 9.4,-8.3 24.2,-3.4 26.7,8.9 l 12.2,59.6 c 1.8,8.8 10.4,14.5 19.2,12.7 l 84.6,-17.4 c 8.8,-1.8 14.5,-10.4 12.7,-19.2 l -12.2,-59.6 c -2.5,-12.3 9.2,-22.7 21.1,-18.7 l 57.7,19.2 c 8.5,2.8 17.7,-1.8 20.6,-10.3 l 27.3,-81.9 c 2.8,-8.5 -1.8,-17.7 -10.3,-20.6 l -57.8,-19.3 c -11.9,-4 -15,-19.3 -5.7,-27.6 l 45.5,-40.4 c 6.7,-6 7.3,-16.2 1.4,-23 L 937.6,42.432035 c -6,-6.7 -16.2,-7.3 -23,-1.4 l -45.5,40.4 c -9.4,8.3 -24.2,3.4 -26.7,-8.9 l -12.2,-59.5 C 828.4,4.2320355 819.8,-1.4679645 811,0.33203546 L 726.4,17.732035 c -8.8,1.8 -14.5,10.4 -12.7,19.2 l 12.2,59.6 c 2.5,12.300005 -9.2,22.700005 -21.1,18.700005 L 647.2,96.032035 c -8.5,-2.8 -17.7,1.8 -20.6,10.300005 l -27.3,81.9 c -2.8,8.5 1.8,17.7 10.3,20.6 z m 144.6,-28 c 12.6,-22.6 38.8,-35.7 64.4,-32.3 46.1,6.2 71,55.9 48.3,96.5 -12.6,22.6 -38.8,35.7 -64.4,32.2 -46.1,-6 -71,-55.7 -48.3,-96.4 z m 269.1,525.1 -25.3,-83 c -2.6,-8.6 -11.8,-13.5 -20.4,-10.9 l -58.5,17.8 c -12,3.7 -23.5,-7.1 -20.7,-19.3 l 13.8,-59.5 c 2,-8.8 -3.4,-17.6 -12.2,-19.6 l -84.5,-19.6 c -8.8,-2 -17.6,3.4 -19.6,12.2 l -13.8,59.5 c -2.8,12.3 -17.9,16.8 -27.1,8.3 l -44.7,-41.7 c -6.6,-6.2 -16.9,-5.8 -23.1,0.8 l -59.2,63.4 c -6.2,6.6 -5.8,16.9 0.8,23.1 l 44.7,41.7 c 9.2,8.6 5.6,23.9 -6.4,27.6 l -58.5,17.8 c -8.6,2.6 -13.5,11.8 -10.9,20.4 l 25.3,83 c 2.6,8.6 11.8,13.5 20.4,10.9 l 58.5,-17.8 c 12,-3.7 23.5,7.1 20.7,19.3 l -13.8,59.5 c -2,8.8 3.4,17.6 12.2,19.6 l 84.5,19.6 c 8.8,2 17.6,-3.4 19.6,-12.2 l 13.8,-59.5 c 2.8,-12.3 17.9,-16.8 27.1,-8.3 l 44.7,41.7 c 6.6,6.2 16.9,5.8 23.1,-0.8 l 59.2,-63.4 c 6.2,-6.6 5.8,-16.9 -0.8,-23.1 l -44.7,-41.7 c -9.2,-8.6 -5.6,-23.9 6.4,-27.6 l 58.5,-17.8 c 8.6,-2.6 13.5,-11.7 10.9,-20.4 z m -181.9,77 c -41.4,21.7 -90.6,-4.6 -95.7,-51 -2.8,-25.8 11.1,-51.8 34,-63.9 41.4,-21.7 90.7,4.6 95.7,51 2.8,25.8 -11.1,51.8 -34,63.9 z"
     fill="#4D4D4D"
     id="path4"
     style="fill:#33447e;fill-opacity:1" />
</svg>
