<?xml version="1.0" encoding="UTF-8" standalone="no"?>
<svg
   viewBox="0 0 14.888738 9.4097519"
   version="1.1"
   id="svg4"
   sodipodi:docname="cloud.svg"
   width="14.888738"
   height="9.4097519"
   inkscape:version="1.2.1 (9c6d41e410, 2022-07-14)"
   xmlns:inkscape="http://www.inkscape.org/namespaces/inkscape"
   xmlns:sodipodi="http://sodipodi.sourceforge.net/DTD/sodipodi-0.dtd"
   xmlns="http://www.w3.org/2000/svg"
   xmlns:svg="http://www.w3.org/2000/svg">
  <defs
     id="defs8" />
  <sodipodi:namedview
     id="namedview6"
     pagecolor="#ffffff"
     bordercolor="#000000"
     borderopacity="0.25"
     inkscape:showpageshadow="2"
     inkscape:pageopacity="0.0"
     inkscape:pagecheckerboard="0"
     inkscape:deskcolor="#d1d1d1"
     showgrid="false"
     inkscape:zoom="26.21875"
     inkscape:cx="10.011919"
     inkscape:cy="11.022646"
     inkscape:window-width="1920"
     inkscape:window-height="1011"
     inkscape:window-x="0"
     inkscape:window-y="32"
     inkscape:window-maximized="1"
     inkscape:current-layer="svg4" />
  <path
     d="M 4.987345,2.2930538 C 4.659066,2.0351342 4.2473527,1.8822639 3.7997705,1.8822639 c -1.0534558,0 -1.9111918,0.8498018 -1.9377036,1.9089183 C 0.77430168,4.2035399 0,5.2650082 0,6.5083529 0,7.9774752 1.0799676,9.1918137 2.4811963,9.3830976 v 0.026654 h 9.9263447 v -0.0047 c 1.384074,-0.081531 2.481196,-1.2417767 2.481196,-2.6615102 0,-1.3695606 -1.020705,-2.4976647 -2.334601,-2.6489671 0.0055,-0.083099 0.0086,-0.1677653 0.0086,-0.2524319 C 12.562713,1.7199863 10.791878,0 8.6077706,0 6.9913282,0 5.6010161,0.9423079 4.987345,2.2930538"
     fill="#4d4d4d"
     id="path2"
     style="fill:#33447e;fill-opacity:1;stroke-width:0.781852" />
</svg>
